<svg xmlns="http://www.w3.org/2000/svg" version="1.0" width="16.000000pt" height="16.000000pt"
    viewBox="0 0 16.000000 16.000000" preserveAspectRatio="xMidYMid meet">

    <g transform="translate(0.000000,16.000000) scale(0.100000,-0.100000)" fill="#000000"
        stroke="none">
        <path
            d="M0 80 l0 -80 80 0 80 0 0 80 0 80 -80 0 -80 0 0 -80z m106 29 c4 -8 0 -9 -15 -4 -12 3 -21 2 -21 -4 0 -5 9 -13 20 -16 30 -9 26 -45 -4 -45 -25 0 -43 16 -31 28 3 3 10 0 15 -8 5 -8 12 -11 16 -7 4 3 -4 15 -16 25 -13 11 -20 24 -16 30 9 15 43 15 52 1z" />
    </g>
</svg>